<svg enable-background="new 0 0 45 45" viewBox="0 0 45 45" xmlns="http://www.w3.org/2000/svg" xmlns:xlink="http://www.w3.org/1999/xlink"><clipPath id="a"><path d="m0 36h36v-36h-36z"/></clipPath><g clip-path="url(#a)" transform="matrix(1.25 0 0 -1.25 0 45)"><path d="m0 0c0-9.941-8.059-18-18-18s-18 8.059-18 18 8.059 18 18 18 18-8.059 18-18" fill="#ffffff" transform="translate(36 18)"/><path d="m0 0c.7-.412 1.421-.79 2.178-1.106l6.576 14.615h-1.419z" fill="#808285" transform="translate(8.896 2.491)"/><path d="m0 0h-1.42l6.577-14.615c.756.316 1.478.694 2.178 1.106z" fill="#808285" transform="translate(19.77 16)"/><path d="m13.999 10h-2v-2h2z" fill="#58595b"/><path d="m24 10h-2v-2h2z" fill="#58595b"/><path d="m0 0c0-1.104-.895-2-2-2h-12c-1.104 0-2 .896-2 2v2c0 1.105.896 2 2 2h12c1.105 0 2-.895 2-2z" fill="#a7a9ac" transform="translate(26 11)"/><path d="m0 0h-12.727c-2.008 0-3.636-1.628-3.636-3.636v-9.364-3-1c0-1.104.895-2 2-2h16c1.104 0 2 .896 2 2v1 3 9.364c0 2.008-1.628 3.636-3.637 3.636" fill="#d1d3d4" transform="translate(24.363 30)"/><path d="m0 0v-3-1c0-1.104.896-2 2-2h16c1.105 0 2 .896 2 2v1 3 4h-20z" fill="#dd2e44" transform="translate(8 17)"/><path d="m0 0c0-1.104-.895-2-2-2h-12c-1.104 0-2 .896-2 2v7c0 1.104.896 2 2 2h12c1.105 0 2-.896 2-2z" fill="#58595b" transform="translate(26 19)"/><path d="m0 0c0-.552-.447-1-1-1h-10c-.552 0-1 .448-1 1v5c0 .552.448 1 1 1h10c.553 0 1-.448 1-1z" fill="#55acee" transform="translate(24 20)"/><path d="m14 13h-4v2h4z" fill="#ffd983"/><path d="m26 13h-4v2h4z" fill="#ffd983"/><path d="m0 0c0-.552-.447-1-1-1h-2c-.552 0-1 .448-1 1s.448 1 1 1h2c.553 0 1-.448 1-1" fill="#808285" transform="translate(20 27)"/></g></svg>